<svg xmlns="http://www.w3.org/2000/svg" x="0px" y="0px"
     width="50" height="50"
     viewBox="0 0 64 64"
     style="enable-background:new 0 0 64 64;;fill:#000000;"><linearGradient id="SVGID_1__69463" gradientUnits="userSpaceOnUse" x1="32" y1="6" x2="32" y2="58" spreadMethod="reflect">	<stop offset="0" style="stop-color:#1A6DFF"></stop>	<stop offset="1" style="stop-color:#C822FF"></stop></linearGradient><circle style="fill:none;stroke:url(#SVGID_1__69463);stroke-width:2;stroke-miterlimit:10;" cx="32" cy="32" r="25"></circle><linearGradient id="SVGID_2__69463" gradientUnits="userSpaceOnUse" x1="30.9996" y1="16" x2="30.9996" y2="49.98" spreadMethod="reflect">	<stop offset="0" style="stop-color:#6DC7FF"></stop>	<stop offset="1" style="stop-color:#E6ABFF"></stop></linearGradient><path class="rocket-body" style="fill:url(#SVGID_2__69463);" d="M47.93,16.83C47.89,16.35,47.49,16,47.01,16h-1.25c-5.31,0-11.52,3.05-16.63,8.15L29,24.27  c-0.52,0.52-1.02,1.02-1.52,1.56c-0.32,0.34-0.77,0.55-1.22,0.57c-4.01,0.2-7.072,1.12-9.922,3.95l-2.07,2.09  c-0.26,0.26-0.34,0.65-0.2,0.99c0.14,0.34,0.47,0.57,0.85,0.57h8.07l-0.278,1.27c-0.33,0.99-0.08,2.07,0.67,2.82l2.55,2.54  c0.73,0.73,1.84,0.99,2.82,0.67L30,41v8.06c0,0.38,0.22,0.7,0.57,0.85c0.11,0.05,0.22,0.07,0.35,0.07c0.24,0,0.48-0.09,0.65-0.27  l2.07-2.08c2.83-2.82,3.76-5.84,3.98-9.81c0.02-0.47,0.25-0.91,0.61-1.25c0.53-0.48,1.05-1.01,1.64-1.69  C45.41,29.35,48.51,22.43,47.93,16.83z M38,29c-1.66,0-3-1.34-3-3c0-1.66,1.34-3,3-3s3,1.34,3,3C41,27.66,39.66,29,38,29z"></path><linearGradient id="SVGID_3__69463" gradientUnits="userSpaceOnUse" x1="21" y1="16.5" x2="21" y2="49.7859" spreadMethod="reflect">	<stop offset="0" style="stop-color:#6DC7FF"></stop>	<stop offset="1" style="stop-color:#E6ABFF"></stop></linearGradient><path class="rocket-fire" style="fill:url(#SVGID_3__69463);" d="M24.839,43.629c-0.286,0.411-0.617,0.811-0.937,1.131C22.45,46.2,20.553,47,18.565,47  c-0.251,0-0.491-0.011-0.731-0.034c-0.446-0.046-0.8-0.411-0.823-0.869c-0.114-2.217,0.731-4.4,2.32-5.966  c0.331-0.343,0.766-0.686,1.211-0.971C20.69,39.057,20.885,39,21.068,39c0.754,0,0.994,0.731,1.109,1.074  c0.274,0.869,0.937,1.577,1.76,1.886c0.434,0.171,0.869,0.366,1.017,0.846C25.045,43.069,24.999,43.4,24.839,43.629z"></path></svg>